<?xml version="1.0" standalone="no"?>
<!DOCTYPE svg PUBLIC "-//W3C//DTD SVG 20010904//EN"
 "http://www.w3.org/TR/2001/REC-SVG-20010904/DTD/svg10.dtd">
<svg version="1.0" xmlns="http://www.w3.org/2000/svg"
 width="1024.000000pt" height="1024.000000pt" viewBox="0 0 1024.000000 1024.000000"
 preserveAspectRatio="xMidYMid meet">
<metadata>
Created by potrace 1.16, written by Peter Selinger 2001-2019
</metadata>
<g transform="translate(0.000000,1024.000000) scale(0.100000,-0.100000)"
fill="#000000" stroke="none">
<path d="M0 5120 l0 -5120 5120 0 5120 0 0 5120 0 5120 -5120 0 -5120 0 0
-5120z m5480 3479 c381 -33 862 -167 1225 -340 917 -437 1593 -1200 1910
-2154 127 -381 185 -745 185 -1156 0 -814 -258 -1571 -751 -2201 -96 -121
-275 -325 -295 -332 -8 -3 -61 19 -117 48 -354 187 -880 334 -1440 403 -135
16 -144 19 -182 51 -56 47 -238 134 -380 181 l-120 40 -13 137 -13 138 35 105
c140 426 102 903 -104 1276 l-39 71 117 38 c414 136 714 386 796 665 26 89 22
127 -19 168 -33 33 -39 35 -88 31 -56 -5 -97 -27 -118 -65 -17 -31 -34 -29
-115 12 -128 64 -168 109 -261 298 -30 61 -75 141 -98 177 -38 57 -138 165
-187 202 -14 11 -17 44 -21 243 -4 174 -10 258 -26 346 -67 368 -96 387 -283
190 -93 -97 -207 -258 -277 -392 l-47 -88 -28 87 c-35 107 -127 302 -197 418
-62 103 -195 272 -237 303 -76 54 -128 8 -231 -201 -122 -249 -179 -472 -188
-735 -6 -143 7 -335 27 -403 6 -22 0 -43 -35 -111 -24 -46 -55 -123 -69 -171
-14 -49 -38 -127 -52 -175 -36 -122 -78 -196 -156 -279 -48 -50 -68 -79 -68
-97 0 -71 355 -308 618 -413 l94 -37 -6 -31 c-10 -53 -122 -267 -178 -341 -29
-38 -149 -169 -268 -290 -267 -272 -354 -383 -451 -578 -99 -196 -134 -344
-134 -562 0 -151 6 -188 48 -286 l16 -35 -122 -48 c-178 -71 -408 -178 -528
-246 l-104 -60 -98 101 c-447 462 -772 1097 -902 1759 -52 266 -59 355 -59
680 0 327 12 456 69 749 196 1001 855 1920 1740 2426 470 269 1026 446 1520
484 77 6 160 13 185 15 68 6 390 -4 520 -15z m-1135 -1370 c122 -135 253 -408
321 -667 25 -97 24 -112 -4 -112 -28 0 -215 -97 -259 -135 l-41 -35 -22 73
c-45 145 -61 270 -67 513 -5 223 7 404 27 404 4 0 24 -18 45 -41z m932 -586
c3 -101 4 -183 1 -183 -3 0 -26 9 -52 20 -29 13 -46 27 -46 38 0 20 47 361 56
412 7 33 8 31 21 -35 7 -38 16 -152 20 -252z m-3 -733 c36 -35 38 -150 3 -178
-33 -27 -57 -24 -92 11 -31 31 -35 41 -35 87 0 44 4 56 30 81 33 33 59 33 94
-1z m451 -330 c129 -13 260 -20 298 -17 37 3 67 3 67 -1 0 -4 14 -16 30 -27
16 -11 30 -24 30 -28 0 -22 -88 -133 -152 -191 -212 -192 -491 -317 -853 -381
-125 -23 -408 -31 -531 -16 -295 37 -535 126 -753 279 l-65 46 110 23 c143 29
235 58 489 153 317 118 451 155 645 180 110 13 422 4 685 -20z m-402 -850 c53
-98 105 -238 134 -358 38 -160 43 -409 13 -586 -20 -118 -72 -312 -87 -325 -3
-3 -3 5 1 19 15 49 19 287 7 371 -36 240 -119 415 -319 666 -90 113 -158 211
-172 248 -9 25 -9 25 43 25 69 0 218 19 270 34 49 14 53 11 110 -94z m-794
-996 c134 -33 265 -128 343 -249 34 -52 97 -219 87 -229 -2 -2 -21 -6 -42 -8
l-38 -3 -23 67 c-81 231 -313 379 -591 380 -55 0 -122 -5 -150 -10 -27 -6 -51
-9 -53 -7 -6 6 114 48 173 61 86 17 218 17 294 -2z m437 -594 c294 -38 475
-84 736 -186 445 -175 815 -475 1017 -827 128 -223 190 -425 213 -692 12 -145
7 -215 -16 -215 -7 0 -29 24 -49 53 -93 141 -243 266 -422 352 -185 89 -346
125 -567 125 -189 0 -353 -27 -748 -125 -135 -33 -214 -47 -292 -52 -104 -6
-108 -5 -128 18 -80 92 -148 252 -176 412 -22 124 -14 368 15 483 49 198 127
339 257 471 l90 91 -35 6 c-20 4 -140 9 -268 12 -257 7 -392 -3 -581 -42 -64
-13 -119 -24 -122 -24 -11 1 118 52 190 75 262 84 565 106 886 65z"/>
<path d="M6914 7401 c-224 -36 -435 -189 -532 -386 -48 -96 -63 -161 -69 -286
-7 -143 11 -235 67 -347 125 -247 361 -391 643 -392 113 0 212 22 312 70 144
69 240 164 310 305 33 65 70 201 63 231 -2 8 -29 -20 -61 -60 -102 -130 -236
-196 -397 -196 -147 0 -252 42 -350 140 -102 101 -150 213 -150 347 0 287 214
504 500 505 77 0 82 1 60 14 -85 48 -276 74 -396 55z"/>
</g>
</svg>
